# xmcd
#
# Track frame offsets:
# 150
# 20982
# 43527
# 62822
# 84010
# 101662
# 117820
# 135480
# 154597
# 167625
# 188350
# 207565
#
# Disc length: 3020 seconds
#
# Revision: 1
# Processed by: cddbd v1.4PL0 Copyright (c) Steve Scherf et al.
# Submitted via: Easy CD Ripper v2.14
#
DISCID=950bca0c
DTITLE=Gilberto Santa Rosa - Intenso
DYEAR=2001
DGENRE=Salsa
TTITLE0=Advertencia - Gilberto Santa Rosa
TTITLE1=Alguna parte de ti - Gilberto Santa Rosa
TTITLE2=La agarro bajando - Gilberto Santa Rosa
TTITLE3=Mentira - Gilberto Santa Rosa
TTITLE4=Acechando - Gilberto Santa Rosa
TTITLE5=Pueden decir (balada) - Gilberto Santa Rosa
TTITLE6=Pero no me ama - Gilberto Santa Rosa
TTITLE7=De colores - Gilberto Santa Rosa
TTITLE8=Se puede - Gilberto Santa Rosa
TTITLE9=Si no lo digo ahora - Gilberto Santa Rosa
TTITLE10=Bailalo - Gilberto Santa Rosa
TTITLE11=Pueden decir - Gilberto Santa Rosa
EXTD=
EXTT0=
EXTT1=
EXTT2=
EXTT3=
EXTT4=
EXTT5=
EXTT6=
EXTT7=
EXTT8=
EXTT9=
EXTT10=
EXTT11=
PLAYORDER=
